<?xml version="1.0" encoding="UTF-8" standalone="no"?>
<!-- Generator: Adobe Illustrator 14.0.0, SVG Export Plug-In . SVG Version: 6.00 Build 43363)  -->

<svg
   xmlns:dc="http://purl.org/dc/elements/1.1/"
   xmlns:cc="http://creativecommons.org/ns#"
   xmlns:rdf="http://www.w3.org/1999/02/22-rdf-syntax-ns#"
   xmlns:svg="http://www.w3.org/2000/svg"
   xmlns="http://www.w3.org/2000/svg"
   xmlns:sodipodi="http://sodipodi.sourceforge.net/DTD/sodipodi-0.dtd"
   xmlns:inkscape="http://www.inkscape.org/namespaces/inkscape"
   version="1.1"
   id="Calque_1"
   x="0px"
   y="0px"
   width="32"
   height="32"
   viewBox="0 0 32 32"
   enable-background="new 0 0 512 512"
   xml:space="preserve"
   inkscape:version="0.48.0 r9654"
   sodipodi:docname="facebook.svg"
   inkscape:export-filename="/Volumes/DATA/U8U/Dropbox/Development/scribus-planet/scribus-planet/img/icons/facebook-blue.png"
   inkscape:export-xdpi="90"
   inkscape:export-ydpi="90"><metadata
   id="metadata8"><rdf:RDF><cc:Work
       rdf:about=""><dc:format>image/svg+xml</dc:format><dc:type
         rdf:resource="http://purl.org/dc/dcmitype/StillImage" /><dc:title></dc:title></cc:Work></rdf:RDF></metadata><defs
   id="defs6" /><sodipodi:namedview
   pagecolor="#ffffff"
   bordercolor="#666666"
   borderopacity="1"
   objecttolerance="10"
   gridtolerance="10"
   guidetolerance="10"
   inkscape:pageopacity="0"
   inkscape:pageshadow="2"
   inkscape:window-width="1240"
   inkscape:window-height="772"
   id="namedview4"
   showgrid="false"
   inkscape:zoom="9.2073171"
   inkscape:cx="11"
   inkscape:cy="17.5"
   inkscape:window-x="19"
   inkscape:window-y="0"
   inkscape:window-maximized="0"
   inkscape:current-layer="Calque_1" />
<path
   id="path67"
   nodetypes="ssssssssssccccccccssccccccc"
   connector-curvature="0"
   enable-background="new    "
   d="M 26.667781,0 H 5.3340313 C 3.7237966,0 2.2742541,0.7231875 1.2940379,1.8608125 0.48845181,2.79575 0,4.010625 0,5.334 V 26.666062 C 0,29.601625 2.4004453,32 5.3340313,32 l 21.3338127,-6.2e-5 c 2.933711,0 5.333156,-2.398313 5.333156,-5.334001 V 5.334 C 32.000937,2.4004375 29.601492,0 26.667781,0 z m 0.538954,16 h -5.20609 V 30 H 16.000469 V 16 h -2.891522 v -4.580125 h 2.891522 V 8.4453125 C 16.000469,4.403375 17.744082,2 22.496534,2 h 5.476598 v 4.9553125 h -4.472881 c -1.327664,-0.00219 -1.492356,0.69225 -1.492356,1.98475 l -0.0073,2.4798125 H 28.00082 L 27.206735,16 z"
   style="fill:#4179ac;fill-opacity:1"
   inkscape:connector-curvature="0" />
</svg>