<?xml version="1.0" encoding="UTF-8" standalone="no"?>
<!-- Generator: Adobe Illustrator 14.0.0, SVG Export Plug-In . SVG Version: 6.00 Build 43363)  -->

<svg
   xmlns:dc="http://purl.org/dc/elements/1.1/"
   xmlns:cc="http://creativecommons.org/ns#"
   xmlns:rdf="http://www.w3.org/1999/02/22-rdf-syntax-ns#"
   xmlns:svg="http://www.w3.org/2000/svg"
   xmlns="http://www.w3.org/2000/svg"
   xmlns:sodipodi="http://sodipodi.sourceforge.net/DTD/sodipodi-0.dtd"
   xmlns:inkscape="http://www.inkscape.org/namespaces/inkscape"
   version="1.1"
   id="Calque_1"
   x="0px"
   y="0px"
   width="32"
   height="32"
   viewBox="0 0 32 32"
   enable-background="new 0 0 35 34.125"
   xml:space="preserve"
   inkscape:version="0.48.0 r9654"
   sodipodi:docname="twitter.svg"><metadata
   id="metadata9"><rdf:RDF><cc:Work
       rdf:about=""><dc:format>image/svg+xml</dc:format><dc:type
         rdf:resource="http://purl.org/dc/dcmitype/StillImage" /><dc:title></dc:title></cc:Work></rdf:RDF></metadata><defs
   id="defs7" /><sodipodi:namedview
   pagecolor="#ffffff"
   bordercolor="#666666"
   borderopacity="1"
   objecttolerance="10"
   gridtolerance="10"
   guidetolerance="10"
   inkscape:pageopacity="0"
   inkscape:pageshadow="2"
   inkscape:window-width="1393"
   inkscape:window-height="829"
   id="namedview5"
   showgrid="false"
   inkscape:zoom="7.6776557"
   inkscape:cx="-5.6841603"
   inkscape:cy="17.0625"
   inkscape:window-x="-4"
   inkscape:window-y="115"
   inkscape:window-maximized="0"
   inkscape:current-layer="Calque_1" />
<path
   d="m 16.020992,-0.07326336 c -8.8369996,0 -15.99999963,7.16299996 -15.99999963,16.00000036 0,8.837 7.16300003,16 15.99999963,16 8.837,0 16,-7.163 16,-16 0,-8.8370004 -7.163,-16.00000036 -16,-16.00000036 z m 9.195,11.28400036 c 0.009,0.203 0.014,0.408 0.014,0.614 0,6.269 -4.771,13.499 -13.499,13.499 -2.6789996,0 -5.1729996,-0.785 -7.2729996,-2.133 0.371,0.044 0.749,0.066 1.133,0.066 2.223,0 4.268,-0.759 5.8919996,-2.031 -2.0759996,-0.038 -3.8279996,-1.41 -4.4319996,-3.295 0.29,0.055 0.587,0.085 0.893,0.085 0.434,0 0.853,-0.058 1.25,-0.166 -2.17,-0.436 -3.806,-2.353 -3.806,-4.651 0,-0.021 0,-0.04 0.001,-0.061 0.64,0.355 1.371,0.569 2.148,0.593 -1.272,-0.851 -2.11,-2.303 -2.11,-3.9480004 0,-0.869 0.233,-1.686 0.642,-2.386 2.34,2.8700004 5.8359996,4.7600004 9.7789996,4.9570004 -0.081,-0.347 -0.123,-0.709 -0.123,-1.081 0,-2.6200004 2.124,-4.7430004 4.744,-4.7430004 1.364,0 2.598,0.575 3.463,1.497 1.081,-0.213 2.096,-0.607 3.013,-1.15 -0.354,1.107 -1.106,2.038 -2.086,2.625 0.96,-0.115 1.874,-0.37 2.725,-0.747 -0.636,0.951 -1.441,1.7870004 -2.368,2.4560004 z"
   id="path3"
   style="fill:#4179ac;fill-opacity:1"
   inkscape:connector-curvature="0"
   inkscape:export-xdpi="90"
   inkscape:export-ydpi="90"
   inkscape:export-filename="/Volumes/DATA/U8U/Dropbox/Development/scribus-planet/scribus-planet/git-ignore/icons-proprietary/twitter.png" />
</svg>