<?xml version="1.0" encoding="UTF-8" standalone="no"?>
<!-- Generator: Adobe Illustrator 14.0.0, SVG Export Plug-In . SVG Version: 6.00 Build 43363)  -->

<svg
   xmlns:dc="http://purl.org/dc/elements/1.1/"
   xmlns:cc="http://creativecommons.org/ns#"
   xmlns:rdf="http://www.w3.org/1999/02/22-rdf-syntax-ns#"
   xmlns:svg="http://www.w3.org/2000/svg"
   xmlns="http://www.w3.org/2000/svg"
   xmlns:sodipodi="http://sodipodi.sourceforge.net/DTD/sodipodi-0.dtd"
   xmlns:inkscape="http://www.inkscape.org/namespaces/inkscape"
   version="1.1"
   id="Calque_1"
   x="0px"
   y="0px"
   width="32"
   height="32"
   viewBox="0 0 32 32"
   enable-background="new 0 0 44 43.75"
   xml:space="preserve"
   inkscape:version="0.48.0 r9654"
   sodipodi:docname="twitter-square.svg"><metadata
   id="metadata9"><rdf:RDF><cc:Work
       rdf:about=""><dc:format>image/svg+xml</dc:format><dc:type
         rdf:resource="http://purl.org/dc/dcmitype/StillImage" /><dc:title></dc:title></cc:Work></rdf:RDF></metadata><defs
   id="defs7" /><sodipodi:namedview
   pagecolor="#ffffff"
   bordercolor="#666666"
   borderopacity="1"
   objecttolerance="10"
   gridtolerance="10"
   guidetolerance="10"
   inkscape:pageopacity="0"
   inkscape:pageshadow="2"
   inkscape:window-width="1096"
   inkscape:window-height="524"
   id="namedview5"
   showgrid="false"
   inkscape:zoom="5.9885714"
   inkscape:cx="45.878817"
   inkscape:cy="21.875"
   inkscape:window-x="0"
   inkscape:window-y="0"
   inkscape:window-maximized="0"
   inkscape:current-layer="Calque_1" />
<path
   d="M 26.667,1.8e-7 H 5.334 C 2.4,1.8e-7 0,2.4000002 0,5.3340002 V 26.666 C 0,29.602 2.4,32 5.334,32 H 26.667 C 29.601,32 32,29.602 32,26.666 V 5.3340002 C 32,2.4000002 29.601,1.8e-7 26.667,1.8e-7 z M 26.189,10.681 c 0.01,0.229 0.015,0.46 0.015,0.692 0,7.069 -5.288,15.221 -14.958,15.221 -2.969,0 -5.732,-0.886 -8.059,-2.403 0.41,0.05 0.829,0.074 1.254,0.074 2.463,0 4.729,-0.854 6.528,-2.289 -2.3,-0.044 -4.242,-1.591 -4.911,-3.716 0.321,0.063 0.65,0.097 0.989,0.097 0.479,0 0.944,-0.066 1.385,-0.188 -2.404,-0.492 -4.217,-2.654 -4.217,-5.245 0,-0.022 0,-0.045 0.001,-0.066 0.709,0.4 1.521,0.641 2.381,0.669 -1.41,-0.959 -2.339,-2.598 -2.339,-4.4529998 0,-0.98 0.259,-1.899 0.712,-2.689 2.594,3.237 6.468,5.3659998 10.836,5.5889998 -0.09,-0.392 -0.136,-0.8 -0.136,-1.219 0,-2.9539998 2.354,-5.3489998 5.257,-5.3489998 1.513,0 2.879,0.649 3.838,1.688 1.198,-0.239 2.323,-0.685 3.339,-1.298 -0.394,1.249 -1.227,2.298 -2.312,2.96 1.063,-0.129 2.077,-0.417 3.02,-0.842 -0.704,1.072 -1.596,2.013 -2.623,2.7669998 z"
   id="path3"
   style="fill:#4179ac;fill-opacity:1"
   inkscape:connector-curvature="0"
   inkscape:export-filename="/Volumes/DATA/U8U/Dropbox/Development/scribus-planet/scribus-planet/img/icons/twitter-blue.png"
   inkscape:export-xdpi="90"
   inkscape:export-ydpi="90" />
</svg>